<svg width="22" height="28" viewBox="0 0 22 28" fill="none" xmlns="http://www.w3.org/2000/svg">
<path d="M20.3335 7.33341H16.3335V6.00008C16.3335 4.58559 15.7716 3.22904 14.7714 2.22885C13.7712 1.22865 12.4147 0.666748 11.0002 0.666748C9.58568 0.666748 8.22912 1.22865 7.22893 2.22885C6.22873 3.22904 5.66683 4.58559 5.66683 6.00008V7.33341H1.66683C1.31321 7.33341 0.974069 7.47389 0.724021 7.72394C0.473972 7.97399 0.333496 8.31313 0.333496 8.66675V23.3334C0.333496 24.3943 0.754924 25.4117 1.50507 26.1618C2.25521 26.912 3.27263 27.3334 4.3335 27.3334H17.6668C18.7277 27.3334 19.7451 26.912 20.4953 26.1618C21.2454 25.4117 21.6668 24.3943 21.6668 23.3334V8.66675C21.6668 8.31313 21.5264 7.97399 21.2763 7.72394C21.0263 7.47389 20.6871 7.33341 20.3335 7.33341ZM8.3335 6.00008C8.3335 5.29284 8.61445 4.61456 9.11455 4.11446C9.61464 3.61437 10.2929 3.33341 11.0002 3.33341C11.7074 3.33341 12.3857 3.61437 12.8858 4.11446C13.3859 4.61456 13.6668 5.29284 13.6668 6.00008V7.33341H8.3335V6.00008ZM19.0002 23.3334C19.0002 23.687 18.8597 24.0262 18.6096 24.2762C18.3596 24.5263 18.0205 24.6667 17.6668 24.6667H4.3335C3.97987 24.6667 3.64074 24.5263 3.39069 24.2762C3.14064 24.0262 3.00016 23.687 3.00016 23.3334V10.0001H5.66683V11.3334C5.66683 11.687 5.80731 12.0262 6.05735 12.2762C6.3074 12.5263 6.64654 12.6667 7.00016 12.6667C7.35379 12.6667 7.69292 12.5263 7.94297 12.2762C8.19302 12.0262 8.3335 11.687 8.3335 11.3334V10.0001H13.6668V11.3334C13.6668 11.687 13.8073 12.0262 14.0574 12.2762C14.3074 12.5263 14.6465 12.6667 15.0002 12.6667C15.3538 12.6667 15.6929 12.5263 15.943 12.2762C16.193 12.0262 16.3335 11.687 16.3335 11.3334V10.0001H19.0002V23.3334Z" fill="#F5FDFF"/>
</svg>
