<?xml version="1.0" encoding="utf-8"?>
<!-- Generator: Adobe Illustrator 28.0.0, SVG Export Plug-In . SVG Version: 6.00 Build 0)  -->
<svg version="1.1" id="Layer_1" xmlns="http://www.w3.org/2000/svg" xmlns:xlink="http://www.w3.org/1999/xlink" x="0px" y="0px"
	 viewBox="0 0 80 16" style="enable-background:new 0 0 80 16;" xml:space="preserve">
<style type="text/css">
	.st0{fill:#0F172A;}
</style>
<path class="st0" d="M77.7,4.3V0.4H60.4v3.3C59.1,0.4,55.3,0,50.8,0c-5.2,0-10,1-10,5.4c0,3.8,5.8,4.1,9.9,4.3
	c2.3,0.1,4.1,0.2,4.1,0.9c0,1.2-2.2,1.5-4,1.5s-3.3-0.3-4-1.5h-5.9L35.5,0.4h-6.8l-7.8,14.9L13.6,8l7.7-7.6h-7.6L8.3,5.6H5.8V0.4H0
	v15.3h5.8v-5.2h2.5l5.4,5.2h7.1h6.5l1.2-2.6h7.4l1.2,2.6h6.5l-0.7-1.3c1.8,1.3,4.7,1.6,7.9,1.6c4.3,0,8.3-0.7,9.6-3.4v3h17.3v-3.9
	H66.2V9.8h11.5V6.3H66.2v-2H77.7z M30.1,9.3l2-4.5l2,4.5H30.1z M50.9,6.3c-2.3-0.1-4.1-0.2-4.1-0.9c0-1.2,2.2-1.5,4-1.5
	s3.3,0.3,4,1.5h5.6V9C59,6.7,54.4,6.4,50.9,6.3z"/>
</svg>
